<svg id="Layer_1" data-name="Layer 1" xmlns="http://www.w3.org/2000/svg" viewBox="0 0 16.28 16.28"><defs><style>.cls-1{fill:#0e4f7d;}</style></defs><path class="cls-1" d="M18.14,10v.66a1.07,1.07,0,0,1-.94,1.12l-.95.16a.21.21,0,0,0-.11.1c-.13.28-.24.57-.36.85a.13.13,0,0,0,0,.15l.57.8a1.07,1.07,0,0,1-.12,1.43c-.32.32-.64.65-1,1a1.06,1.06,0,0,1-1.43.11l-.78-.55a.14.14,0,0,0-.17,0c-.28.12-.55.24-.83.34a.17.17,0,0,0-.12.16c-.06.33-.11.67-.17,1a1.07,1.07,0,0,1-1,.86H9.31a1.07,1.07,0,0,1-1.09-.94c-.05-.31-.11-.63-.16-.94A.16.16,0,0,0,8,16.12c-.27-.1-.54-.21-.8-.33a.15.15,0,0,0-.17,0l-.8.58a1.08,1.08,0,0,1-1.41-.11l-1-1a1.07,1.07,0,0,1-.12-1.42l.57-.78a.15.15,0,0,0,0-.17c-.12-.27-.24-.55-.35-.83A.15.15,0,0,0,3.76,12l-1-.17a1.08,1.08,0,0,1-.93-1.08c0-.43,0-.86,0-1.3a1.12,1.12,0,0,1,1-1.2c.28,0,.57-.09.85-.14A.2.2,0,0,0,3.85,8c.12-.3.25-.59.36-.89a.19.19,0,0,0,0-.13c-.19-.28-.38-.54-.58-.81a1.09,1.09,0,0,1,.13-1.43c.32-.33.65-.65,1-1a1.07,1.07,0,0,1,1.41-.12l.79.58a.14.14,0,0,0,.16,0l.84-.35A.15.15,0,0,0,8,3.75c.06-.35.11-.7.18-1a1.06,1.06,0,0,1,1-.85h1.36a1.09,1.09,0,0,1,1.16,1c0,.29.09.59.15.89a.13.13,0,0,0,.08.1l.93.38a.17.17,0,0,0,.12,0c.27-.18.53-.37.79-.56a1.07,1.07,0,0,1,1.46.13l.94.94a1.08,1.08,0,0,1,.12,1.45c-.18.26-.36.52-.55.77a.15.15,0,0,0,0,.18c.12.27.23.54.34.81a.17.17,0,0,0,.16.13l1,.17a1.05,1.05,0,0,1,.86,1ZM4.49,5.54,5.3,6.69a.51.51,0,0,1,0,.62,5.32,5.32,0,0,0-.55,1.35.55.55,0,0,1-.49.43L3,9.32l0,0c0,.44,0,.88,0,1.31,0,0,0,.08.08.09L4.32,11a.55.55,0,0,1,.49.43,4.74,4.74,0,0,0,.53,1.27.63.63,0,0,1,0,.77c-.27.35-.51.71-.75,1.05l1,1,1.15-.81a.53.53,0,0,1,.59,0,6.1,6.1,0,0,0,1.37.57.48.48,0,0,1,.38.41c0,.28.1.56.14.84s.07.39.1.58h1.42a.29.29,0,0,0,0-.09c.07-.4.15-.81.2-1.22a.61.61,0,0,1,.5-.55,5.25,5.25,0,0,0,1.27-.53.56.56,0,0,1,.67,0c.31.23.63.45,1,.67l.16.11,1-1c-.26-.38-.53-.75-.8-1.13a.54.54,0,0,1,0-.62,5.81,5.81,0,0,0,.57-1.39.53.53,0,0,1,.42-.39l.55-.09.87-.15V9.29l-.13,0-1.25-.21a.52.52,0,0,1-.46-.42,5.67,5.67,0,0,0-.56-1.35.56.56,0,0,1-.07-.18.53.53,0,0,1,.1-.45l.8-1.12-1-1-1.13.8a.53.53,0,0,1-.61,0,5.54,5.54,0,0,0-1.42-.59.5.5,0,0,1-.39-.41l-.12-.71-.12-.71H9.27l0,.13L9,4.35a.54.54,0,0,1-.42.45,5.08,5.08,0,0,0-1.34.56.56.56,0,0,1-.65,0L5.74,4.7l-.25-.17Z" transform="translate(-1.86 -1.86)"/><path class="cls-1" d="M13.56,10A3.56,3.56,0,1,1,10,6.44,3.56,3.56,0,0,1,13.56,10Zm-1.08,0A2.48,2.48,0,1,0,10,12.48,2.47,2.47,0,0,0,12.48,10Z" transform="translate(-1.86 -1.86)"/></svg>